name p02_m_01_labelled_grf.mot
datacolumns 46
datarows 12
range 0.004000 0.009500
endheader
time	1_ground_force_vx	1_ground_force_vy	1_ground_force_vz	1_ground_force_px	1_ground_force_py	1_ground_force_pz	1_ground_torque_x	1_ground_torque_y	1_ground_torque_z	2_ground_force_vx	2_ground_force_vy	2_ground_force_vz	2_ground_force_px	2_ground_force_py	2_ground_force_pz	2_ground_torque_x	2_ground_torque_y	2_ground_torque_z	3_ground_force_vx	3_ground_force_vy	3_ground_force_vz	3_ground_force_px	3_ground_force_py	3_ground_force_pz	3_ground_torque_x	3_ground_torque_y	3_ground_torque_z	4_ground_force_vx	4_ground_force_vy	4_ground_force_vz	4_ground_force_px	4_ground_force_py	4_ground_force_pz	4_ground_torque_x	4_ground_torque_y	4_ground_torque_z	5_ground_force_vx	5_ground_force_vy	5_ground_force_vz	5_ground_force_px	5_ground_force_py	5_ground_force_pz	5_ground_torque_x	5_ground_torque_y	5_ground_torque_z
            0.004000	            0.038398	            0.222520	           -0.099933	            1.326221	           -0.010887	            0.287934	            0.145437	           -0.053094	            0.246756	            0.022878	            1.083538	            0.206232	            0.451054	           -0.002748	            0.237389	            0.229564	           -0.019321	           -0.300229	           -0.258350	           -0.340421	           -0.035440	           -0.650652	            0.006920	            0.390602	            0.066048	           -0.108550	           -0.159376	           -0.103500	            0.458044	           -0.123532	           -1.730370	            0.016435	            0.469073	           -0.108518	           -0.053291	            0.064324	            0.392357	           -2.397704	           -0.174870	           -2.055552	            0.018856	            0.295328	            0.009102	            0.023260	            0.072479
            0.004500	           -0.198150	            0.536547	           -0.019910	            1.326221	           -0.010887	            0.287934	           -0.256909	            0.029524	           -0.324393	           -0.142113	            0.301900	            0.079914	            0.451054	           -0.002748	            0.237389	            0.205968	            0.101921	           -0.365071	           -0.209848	            0.438548	           -0.034827	           -0.650652	            0.006920	            0.390602	            0.164031	           -0.083999	           -0.538961	           -0.256830	            1.248087	           -0.006154	           -1.730370	            0.016435	            0.469073	           -0.083605	           -0.073303	            0.109023	            0.277126	           -1.299298	           -0.014378	           -2.055552	            0.018856	            0.295328	            0.031471	           -0.102082	            0.230511
            0.005000	           -0.114816	            0.855865	            0.141076	            1.326221	           -0.010887	            0.287934	           -0.002594	           -0.046315	           -0.429153	           -0.189022	           -0.643015	            0.035316	            0.451054	           -0.002748	            0.237389	           -0.256611	            0.013911	            0.069474	            0.152221	            0.746740	            0.363231	           -0.650652	            0.006920	            0.390602	           -0.121283	            0.010173	            0.141316	            0.224477	            1.560945	            0.313104	           -1.730370	            0.016435	            0.469073	           -0.036340	           -0.024560	           -0.301317	           -0.034662	           -0.043531	            0.227761	           -2.055552	            0.018856	            0.295328	           -0.048724	            0.020409	            0.321047
            0.005500	           -0.020051	            2.278048	            0.020497	            1.326221	           -0.010887	            0.287934	            0.105530	           -0.066897	            0.074158	            0.064315	            1.239272	            0.166929	            0.451054	           -0.002748	            0.237389	            0.001520	            0.004659	           -0.243413	           -0.137643	           -0.185566	           -0.194981	           -0.650652	            0.006920	            0.390602	           -0.021491	           -0.110384	            0.012425	            0.099960	            0.930726	            0.035073	           -1.730370	            0.016435	            0.469073	           -0.018386	           -0.069064	           -0.308928	            0.238068	           -0.829760	           -0.173012	           -2.055552	            0.018856	            0.295328	           -0.189017	            0.051669	            0.064899
            0.006000	            0.082869	            0.537833	            0.061054	            1.326221	           -0.010887	            0.287934	            0.068999	           -0.032851	           -0.083583	           -0.027908	           -0.332014	            0.199716	            0.451054	           -0.002748	            0.237389	            0.062930	           -0.088833	           -0.138766	            0.195012	            1.058268	            0.124402	           -0.650652	            0.006920	            0.390602	           -0.105435	            0.063120	            0.034400	            0.134486	            0.457799	            0.434074	           -1.730370	            0.016435	            0.469073	            0.055427	           -0.039761	           -0.471518	            0.237125	           -1.769600	            0.105725	           -2.055552	            0.018856	            0.295328	           -0.075087	            0.042743	            0.173071
            0.006500	           -0.069842	            1.328300	           -0.099748	            1.326221	           -0.010887	            0.287934	           -0.019873	           -0.054262	            0.072071	           -0.149895	           -0.642604	            0.156569	            0.451054	           -0.002748	            0.237389	           -0.002267	           -0.005734	            0.182543	           -0.010684	            0.436734	            0.164144	           -0.650652	            0.006920	            0.390602	            0.086652	           -0.094848	           -0.197043	           -0.021839	            0.773260	            0.194427	           -1.730370	            0.016435	            0.469073	           -0.129046	           -0.037054	           -0.040932	            0.279368	           -0.518324	            0.106055	           -2.055552	            0.018856	            0.295328	            0.056171	           -0.021614	           -0.043136
            0.007000	            0.013922	            1.644505	           -0.020190	            1.326221	           -0.010887	            0.287934	            0.042702	            0.046165	           -0.034328	            0.090140	           -0.647797	            0.117897	            0.451054	           -0.002748	            0.237389	           -0.132320	           -0.008009	            0.307786	           -0.045046	            0.903842	            0.244302	           -0.650652	            0.006920	            0.390602	           -0.146857	            0.022041	           -0.253894	            0.016011	            0.457998	           -0.003621	           -1.730370	            0.016435	            0.469073	            0.083509	           -0.044428	           -0.258529	            0.316974	           -0.825757	           -0.173169	           -2.055552	            0.018856	            0.295328	           -0.120514	            0.112321	            0.508371
            0.007500	           -0.188289	            1.490801	            0.141049	            1.326221	           -0.010887	            0.287934	            0.063883	           -0.047076	           -0.654288	           -0.017796	            0.771508	           -0.036467	            0.451054	           -0.002748	            0.237389	           -0.017451	            0.053129	           -0.303386	           -0.199482	            1.375981	           -0.113639	           -0.650652	            0.006920	            0.390602	            0.236440	           -0.018188	           -0.210934	            0.098447	            0.772837	            0.074889	           -1.730370	            0.016435	            0.469073	           -0.120556	           -0.071019	           -0.253970	            0.196133	           -2.237965	           -0.014171	           -2.055552	            0.018856	            0.295328	            0.163702	           -0.002066	            0.443459
            0.008000	           -0.116475	            0.699044	           -0.139971	            1.326221	           -0.010887	            0.287934	            0.181710	           -0.033905	            0.180996	            0.083263	           -1.584320	            0.073112	            0.451054	           -0.002748	            0.237389	            0.067174	            0.037628	            0.418162	           -0.178538	           -0.341813	            0.123516	           -0.650652	            0.006920	            0.390602	           -0.204938	           -0.044465	            0.174407	            0.136035	            0.457538	           -0.042803	           -1.730370	            0.016435	            0.469073	            0.219433	           -0.034620	           -0.471166	            0.352529	           -2.863052	           -0.015572	           -2.055552	            0.018856	            0.295328	           -0.229246	            0.009156	            0.453858
            0.008500	           -0.119861	            0.378886	           -0.181136	            1.326221	           -0.010887	            0.287934	           -0.079889	            0.095336	            0.290991	           -0.016899	            0.926519	            0.005605	            0.451054	           -0.002748	            0.237389	            0.273560	           -0.104029	           -0.138324	           -0.055688	           -0.030538	            0.163570	           -0.650652	            0.006920	            0.390602	            0.119076	           -0.081237	           -0.146091	            0.097450	            0.614860	           -0.043985	           -1.730370	            0.016435	            0.469073	            0.118617	           -0.069781	           -0.087625	            0.197550	           -1.455893	           -0.093542	           -2.055552	            0.018856	            0.295328	           -0.061913	            0.015128	            0.170696
            0.009000	           -0.216733	           -1.198633	           -0.220389	            1.326221	           -0.010887	            0.287934	            0.053397	           -0.004425	            0.065228	            0.057305	            0.140404	           -0.037904	            0.451054	           -0.002748	            0.237389	           -0.151127	           -0.069640	           -0.189207	           -0.093776	            0.125330	            0.123889	           -0.650652	            0.006920	            0.390602	           -0.040678	            0.004090	           -0.093012	            0.271606	            2.348435	            0.232064	           -1.730370	            0.016435	            0.469073	           -0.197443	           -0.003127	           -0.023340	            0.318308	           -0.671827	            0.065763	           -2.055552	            0.018856	            0.295328	           -0.170870	           -0.010447	            0.234560
            0.009500	            0.074982	           -0.098392	           -0.181115	            1.326221	           -0.010887	            0.287934	           -0.180254	            0.054414	            0.138342	           -0.147014	           -0.484492	           -0.083106	            0.451054	           -0.002748	            0.237389	           -0.015870	            0.047087	           -0.201251	           -0.142659	           -0.653096	           -0.076080	           -0.650652	            0.006920	            0.390602	            0.200362	           -0.054188	           -0.151760	           -0.019537	            0.931749	           -0.086457	           -1.730370	            0.016435	            0.469073	            0.122887	            0.046968	           -0.206220	            0.115528	           -2.558205	           -0.253722	           -2.055552	            0.018856	            0.295328	           -0.020542	           -0.034383	           -0.439467
